<svg width="40" height="40" viewBox="0 0 40 40" fill="none" xmlns="http://www.w3.org/2000/svg">
<rect width="40" height="40" rx="8" fill="#2B2A2A"/>
<mask id="path-2-inside-1_31_51" fill="white">
<path d="M20 35C18.0302 35 16.0796 34.612 14.2597 33.8582C12.4399 33.1044 10.7863 31.9995 9.3934 30.6066C8.00052 29.2137 6.89563 27.5601 6.14181 25.7403C5.38799 23.9204 5 21.9698 5 20L20 20L20 35Z"/>
</mask>
<path d="M20 35C18.0302 35 16.0796 34.612 14.2597 33.8582C12.4399 33.1044 10.7863 31.9995 9.3934 30.6066C8.00052 29.2137 6.89563 27.5601 6.14181 25.7403C5.38799 23.9204 5 21.9698 5 20L20 20L20 35Z" stroke="#C6B419" stroke-width="1.6" mask="url(#path-2-inside-1_31_51)"/>
<circle cx="20" cy="20" r="14.6" stroke="#C6B419" stroke-width="0.8" stroke-dasharray="2 2"/>
<rect x="19.7" y="9.09999" width="0.6" height="11.4" rx="0.3" fill="white" stroke="#C6B419" stroke-width="0.6"/>
<rect x="27.3986" y="20.3456" width="0.6" height="7.4" rx="0.3" transform="rotate(89.2327 27.3986 20.3456)" fill="white" stroke="#C6B419" stroke-width="0.6"/>
<circle cx="20" cy="20.6" r="1.4" fill="white" stroke="#C6B419" stroke-width="0.8"/>
</svg>
