<svg width="285" height="63" viewBox="0 0 285 63" fill="none" xmlns="http://www.w3.org/2000/svg">
<path d="M18.2812 48.7578C18.2812 49.2266 18.1797 49.5547 17.9766 49.7422C17.7891 49.9141 17.4609 50 16.9922 50H12C11.5312 50 11.1953 49.9141 10.9922 49.7422C10.8047 49.5547 10.7109 49.2266 10.7109 48.7578V22.5547H3.72656C3.35156 22.5547 3.07031 22.4922 2.88281 22.3672C2.47656 22.0859 2.05469 21.75 1.61719 21.3594C1.19531 20.9688 0.734375 20.5 0.234375 19.9531C0.078125 19.75 0 19.5859 0 19.4609C0 19.3203 0.078125 19.1641 0.234375 18.9922C0.734375 18.4453 1.19531 17.9766 1.61719 17.5859C2.05469 17.1953 2.47656 16.8594 2.88281 16.5781C3.10156 16.4531 3.38281 16.3906 3.72656 16.3906H25.2891C25.6641 16.3906 25.9453 16.4531 26.1328 16.5781C26.5391 16.8594 26.9609 17.1953 27.3984 17.5859C27.8359 17.9766 28.2969 18.4453 28.7812 18.9922C28.9375 19.1953 29.0156 19.3594 29.0156 19.4844C29.0156 19.625 28.9375 19.7812 28.7812 19.9531C28.2969 20.5 27.8359 20.9688 27.3984 21.3594C26.9609 21.75 26.5391 22.0859 26.1328 22.3672C25.9141 22.4922 25.6328 22.5547 25.2891 22.5547H18.2812V48.7578ZM37.6172 50.5859C34.9766 50.5859 32.6797 50.1641 30.7266 49.3203C28.7734 48.4609 27.2578 47.1328 26.1797 45.3359C25.1016 43.5391 24.5625 41.2188 24.5625 38.375C24.5625 34.1094 25.6562 30.8828 27.8438 28.6953C30.0312 26.5078 32.9375 25.4141 36.5625 25.4141C38.9219 25.4141 40.9141 25.8359 42.5391 26.6797C44.1797 27.5234 45.4219 28.6875 46.2656 30.1719C47.125 31.6562 47.5547 33.3516 47.5547 35.2578C47.5547 37.1172 47.0781 38.4141 46.125 39.1484C45.1719 39.8828 43.7812 40.25 41.9531 40.25H31.8984C32.0234 41.8594 32.6094 43.0859 33.6562 43.9297C34.7188 44.7734 36.1562 45.1953 37.9688 45.1953C39.4062 45.1953 40.5547 44.9844 41.4141 44.5625C42.2891 44.125 42.8984 43.7812 43.2422 43.5312C43.5391 43.3125 43.875 43.2109 44.25 43.2266C44.5469 43.2266 44.9688 43.2891 45.5156 43.4141C46.0781 43.5234 46.6328 43.7344 47.1797 44.0469C47.5703 44.25 47.7656 44.5312 47.7656 44.8906C47.7656 45.0938 47.7266 45.3828 47.6484 45.7578C47.6016 45.9766 47.5234 46.2969 47.4141 46.7188C47.3047 47.125 47.1641 47.5078 46.9922 47.8672C46.8984 48.0391 46.75 48.2031 46.5469 48.3594C46.2344 48.5781 45.7266 48.8672 45.0234 49.2266C44.3359 49.5859 43.3906 49.8984 42.1875 50.1641C40.9844 50.4453 39.4609 50.5859 37.6172 50.5859ZM31.8516 35.4453H39.4922C40.2891 35.4453 40.6875 35.0781 40.6875 34.3438C40.6875 33.2344 40.3359 32.3047 39.6328 31.5547C38.9453 30.7891 37.9062 30.4062 36.5156 30.4062C35 30.4062 33.8828 30.8906 33.1641 31.8594C32.4609 32.8281 32.0234 34.0234 31.8516 35.4453ZM74.1797 28.4609C74.7578 27.7578 75.6484 27.0781 76.8516 26.4219C78.0703 25.75 79.7812 25.4141 81.9844 25.4141C85.1094 25.4141 87.3672 26.2188 88.7578 27.8281C90.1484 29.4375 90.8438 31.8516 90.8438 35.0703V48.7578C90.8438 49.2266 90.7422 49.5547 90.5391 49.7422C90.3516 49.9141 90.0234 50 89.5547 50H84.7266C84.2578 50 83.9219 49.9141 83.7188 49.7422C83.5312 49.5547 83.4375 49.2266 83.4375 48.7578V36.2891C83.4375 34.5391 83.1172 33.2891 82.4766 32.5391C81.8359 31.7734 80.875 31.3906 79.5938 31.3906C78.4531 31.3906 77.5469 31.6484 76.875 32.1641C76.2188 32.6641 75.75 33.3438 75.4688 34.2031V48.7578C75.4688 49.2266 75.3672 49.5547 75.1641 49.7422C74.9766 49.9141 74.6484 50 74.1797 50H69.3516C68.8828 50 68.5469 49.9141 68.3438 49.7422C68.1562 49.5547 68.0625 49.2266 68.0625 48.7578V36.2891C68.0625 34.5859 67.7109 33.3438 67.0078 32.5625C66.3047 31.7812 65.3828 31.3906 64.2422 31.3906C63.1641 31.3906 62.2969 31.6562 61.6406 32.1875C60.9844 32.7188 60.4766 33.3906 60.1172 34.2031V48.7578C60.1172 49.2266 60.0156 49.5547 59.8125 49.7422C59.625 49.9141 59.2969 50 58.8281 50H54C53.5312 50 53.1953 49.9141 52.9922 49.7422C52.8047 49.5547 52.7109 49.2266 52.7109 48.7578V29.1172C52.7109 28.7422 52.7891 28.4531 52.9453 28.25C53.2734 27.8125 53.6641 27.3672 54.1172 26.9141C54.5859 26.4609 55.1562 25.9766 55.8281 25.4609C56.0312 25.3047 56.2266 25.2266 56.4141 25.2266C56.5859 25.2266 56.7812 25.3047 57 25.4609C57.6562 25.9766 58.2188 26.4688 58.6875 26.9375C59.1562 27.4062 59.5703 27.8906 59.9297 28.3906H60.0469C60.5781 27.7188 61.4062 27.0547 62.5312 26.3984C63.6562 25.7422 65.2656 25.4141 67.3594 25.4141C69.3594 25.4141 70.8438 25.7188 71.8125 26.3281C72.7812 26.9219 73.5703 27.6328 74.1797 28.4609ZM112.125 25.4141C114.406 25.4141 116.281 25.9297 117.75 26.9609C119.234 27.9766 120.336 29.3828 121.055 31.1797C121.789 32.9609 122.156 35.0078 122.156 37.3203C122.156 39.8203 121.727 42.0703 120.867 44.0703C120.023 46.0703 118.773 47.6562 117.117 48.8281C115.461 50 113.406 50.5859 110.953 50.5859C109.688 50.5859 108.641 50.4375 107.812 50.1406C107 49.8594 106.344 49.5234 105.844 49.1328C105.359 48.7266 104.977 48.3594 104.695 48.0312H104.602V58.0156C104.602 58.3906 104.523 58.6797 104.367 58.8828C103.711 59.7422 102.75 60.6719 101.484 61.6719C101.266 61.8281 101.07 61.9062 100.898 61.9062C100.711 61.9062 100.516 61.8281 100.312 61.6719C99.6406 61.1562 99.0703 60.6719 98.6016 60.2188C98.1484 59.7656 97.7578 59.3203 97.4297 58.8828C97.2734 58.6797 97.1953 58.3906 97.1953 58.0156V29.1172C97.1953 28.7422 97.2734 28.4531 97.4297 28.25C97.7578 27.8125 98.1484 27.3672 98.6016 26.9141C99.0703 26.4609 99.6406 25.9766 100.312 25.4609C100.516 25.3047 100.727 25.2266 100.945 25.2266C101.148 25.2266 101.359 25.3047 101.578 25.4609C102.234 25.9766 102.797 26.4688 103.266 26.9375C103.734 27.4062 104.148 27.8906 104.508 28.3906H104.625C104.891 28.0625 105.297 27.6641 105.844 27.1953C106.391 26.7266 107.164 26.3125 108.164 25.9531C109.18 25.5938 110.5 25.4141 112.125 25.4141ZM109.242 44.6094C110.93 44.6094 112.234 44.0234 113.156 42.8516C114.094 41.6641 114.562 39.9531 114.562 37.7188C114.562 33.5 112.828 31.3906 109.359 31.3906C107.891 31.3906 106.805 31.6953 106.102 32.3047C105.398 32.8984 104.898 33.5312 104.602 34.2031V39.2891C104.602 40.8047 104.992 42.0703 105.773 43.0859C106.555 44.1016 107.711 44.6094 109.242 44.6094ZM188.742 50.5859C186.664 50.5859 184.891 50.0781 183.422 49.0625C181.969 48.0312 180.859 46.6172 180.094 44.8203C179.344 43.0078 178.969 40.9219 178.969 38.5625C178.969 35.4531 179.516 32.9375 180.609 31.0156C181.719 29.0781 183.273 27.6562 185.273 26.75C187.289 25.8438 189.664 25.3906 192.398 25.3906C193.336 25.3906 194.109 25.4375 194.719 25.5312C195.344 25.625 195.789 25.7109 196.055 25.7891V17.0469C196.055 16.6719 196.133 16.3828 196.289 16.1797C196.945 15.3203 197.906 14.3906 199.172 13.3906C199.391 13.2344 199.586 13.1562 199.758 13.1562C199.961 13.1562 200.156 13.2344 200.344 13.3906C201.016 13.9062 201.578 14.3906 202.031 14.8438C202.5 15.2969 202.898 15.7422 203.227 16.1797C203.383 16.3828 203.461 16.6719 203.461 17.0469V48.9219C203.461 49.2188 203.359 49.4766 203.156 49.6953C202.953 49.8984 202.695 50 202.383 50H198.891C198.641 50 198.414 49.9688 198.211 49.9062C198.023 49.8281 197.844 49.6875 197.672 49.4844L196.219 47.6094H196.055C195.852 47.9219 195.484 48.3203 194.953 48.8047C194.438 49.2734 193.68 49.6875 192.68 50.0469C191.695 50.4062 190.383 50.5859 188.742 50.5859ZM191.016 44.5859C192.422 44.5859 193.523 44.3203 194.32 43.7891C195.133 43.2578 195.711 42.5859 196.055 41.7734V31.9531C195.805 31.7969 195.391 31.6094 194.812 31.3906C194.234 31.1719 193.422 31.0625 192.375 31.0625C190.438 31.0625 188.984 31.6953 188.016 32.9609C187.047 34.2266 186.562 35.9297 186.562 38.0703C186.562 40.2891 186.969 41.9297 187.781 42.9922C188.594 44.0547 189.672 44.5859 191.016 44.5859ZM221.297 50.5859C217.359 50.5859 214.242 49.5391 211.945 47.4453C209.648 45.3516 208.5 42.2344 208.5 38.0938C208.5 33.8438 209.688 30.6719 212.062 28.5781C214.453 26.4688 217.641 25.4141 221.625 25.4141C225.469 25.4141 228.547 26.4531 230.859 28.5312C233.172 30.5938 234.328 33.6406 234.328 37.6719C234.328 41.875 233.172 45.0781 230.859 47.2812C228.547 49.4844 225.359 50.5859 221.297 50.5859ZM221.531 44.9141C223.25 44.9141 224.547 44.3828 225.422 43.3203C226.297 42.2422 226.734 40.4062 226.734 37.8125C226.734 35.3438 226.289 33.6094 225.398 32.6094C224.523 31.5938 223.219 31.0859 221.484 31.0859C219.812 31.0859 218.492 31.6328 217.523 32.7266C216.57 33.8047 216.094 35.5625 216.094 38C216.094 40.5469 216.547 42.3359 217.453 43.3672C218.375 44.3984 219.734 44.9141 221.531 44.9141ZM246.773 30.4531H246.867C248.039 27.2031 250.148 25.5781 253.195 25.5781C253.586 25.5781 253.906 25.6016 254.156 25.6484C254.406 25.6797 254.578 25.7109 254.672 25.7422C254.906 25.8203 255.023 26 255.023 26.2812V31.9297C255.023 32.4141 254.742 32.5469 254.18 32.3281C253.992 32.25 253.719 32.1719 253.359 32.0938C253.016 32 252.531 31.9531 251.906 31.9531C250.297 31.9531 249.039 32.5469 248.133 33.7344C247.227 34.9062 246.773 36.5078 246.773 38.5391V48.7578C246.773 49.2266 246.672 49.5547 246.469 49.7422C246.281 49.9141 245.953 50 245.484 50H240.656C240.188 50 239.852 49.9141 239.648 49.7422C239.461 49.5547 239.367 49.2266 239.367 48.7578V29.1172C239.367 28.7422 239.445 28.4531 239.602 28.25C239.93 27.8125 240.32 27.3672 240.773 26.9141C241.242 26.4609 241.812 25.9766 242.484 25.4609C242.609 25.3672 242.734 25.3047 242.859 25.2734C242.984 25.2422 243.094 25.2266 243.188 25.2266C243.406 25.2266 243.625 25.3047 243.844 25.4609C245.141 26.4766 246.047 27.3438 246.562 28.0625C246.703 28.25 246.773 28.4688 246.773 28.7188V30.4531ZM270.047 50.5859C266.109 50.5859 262.992 49.5391 260.695 47.4453C258.398 45.3516 257.25 42.2344 257.25 38.0938C257.25 33.8438 258.438 30.6719 260.812 28.5781C263.203 26.4688 266.391 25.4141 270.375 25.4141C274.219 25.4141 277.297 26.4531 279.609 28.5312C281.922 30.5938 283.078 33.6406 283.078 37.6719C283.078 41.875 281.922 45.0781 279.609 47.2812C277.297 49.4844 274.109 50.5859 270.047 50.5859ZM270.281 44.9141C272 44.9141 273.297 44.3828 274.172 43.3203C275.047 42.2422 275.484 40.4062 275.484 37.8125C275.484 35.3438 275.039 33.6094 274.148 32.6094C273.273 31.5938 271.969 31.0859 270.234 31.0859C268.562 31.0859 267.242 31.6328 266.273 32.7266C265.32 33.8047 264.844 35.5625 264.844 38C264.844 40.5469 265.297 42.3359 266.203 43.3672C267.125 44.3984 268.484 44.9141 270.281 44.9141Z" fill="#D3D3D3"/>
<mask id="path-2-inside-1_8_4" fill="white">
<path d="M151 55C148.374 55 145.773 54.4827 143.346 53.4776C140.92 52.4725 138.715 50.9993 136.858 49.1421C135.001 47.285 133.528 45.0802 132.522 42.6537C131.517 40.2272 131 37.6264 131 35L151 35V55Z"/>
</mask>
<path d="M151 55C148.374 55 145.773 54.4827 143.346 53.4776C140.92 52.4725 138.715 50.9993 136.858 49.1421C135.001 47.285 133.528 45.0802 132.522 42.6537C131.517 40.2272 131 37.6264 131 35L151 35V55Z" stroke="#C6B419" stroke-width="2" mask="url(#path-2-inside-1_8_4)"/>
<circle cx="151" cy="35" r="19.5" stroke="#C6B419" stroke-dasharray="2 2"/>
<rect x="150.575" y="20.4417" width="0.75" height="15.25" rx="0.375" fill="white" stroke="#C6B419" stroke-width="0.75"/>
<rect x="160.895" y="35.5018" width="0.75" height="9.91667" rx="0.375" transform="rotate(90 160.895 35.5018)" fill="white" stroke="#C6B419" stroke-width="0.75"/>
<circle cx="151" cy="35.8" r="2" fill="white" stroke="#C6B419" stroke-width="0.8"/>
</svg>
